<?xml version="1.0" encoding="utf-8"?>
<!-- Generator: Adobe Illustrator 23.0.2, SVG Export Plug-In . SVG Version: 6.00 Build 0)  -->
<svg version="1.1" id="Layer_1" xmlns="http://www.w3.org/2000/svg" xmlns:xlink="http://www.w3.org/1999/xlink" x="0px" y="0px"
	 viewBox="0 0 1000 1000" style="enable-background:new 0 0 1000 1000;" xml:space="preserve">
<style type="text/css">
	.st0{fill:#080516;}
	.st1{fill:#FFFFFF;}
	.st2{fill:#FF3637;}
	.st3{fill:#E63132;}
	.st4{fill:url(#SVGID_1_);}
	.st5{fill:url(#SVGID_2_);}
	.st6{fill-rule:evenodd;clip-rule:evenodd;fill:#FF3637;}
	.st7{fill-rule:evenodd;clip-rule:evenodd;fill:none;}
	.st8{filter:url(#Adobe_OpacityMaskFilter);}
	.st9{fill:url(#SVGID_4_);}
	.st10{mask:url(#SVGID_3_);fill-rule:evenodd;clip-rule:evenodd;fill:#E63132;}
	.st11{filter:url(#Adobe_OpacityMaskFilter_1_);}
	.st12{fill:url(#SVGID_6_);}
	.st13{mask:url(#SVGID_5_);fill-rule:evenodd;clip-rule:evenodd;fill:#E63132;}
	.st14{filter:url(#Adobe_OpacityMaskFilter_2_);}
	.st15{fill:url(#SVGID_8_);}
	.st16{mask:url(#SVGID_7_);fill-rule:evenodd;clip-rule:evenodd;fill:#E63132;}
	.st17{filter:url(#Adobe_OpacityMaskFilter_3_);}
	.st18{fill:url(#SVGID_10_);}
	.st19{mask:url(#SVGID_9_);fill-rule:evenodd;clip-rule:evenodd;fill:#E63132;}
	.st20{filter:url(#Adobe_OpacityMaskFilter_4_);}
	.st21{fill:url(#SVGID_12_);}
	.st22{mask:url(#SVGID_11_);fill-rule:evenodd;clip-rule:evenodd;fill:#E63132;}
	.st23{fill:url(#SVGID_13_);}
	.st24{fill:url(#SVGID_14_);}
	.st25{fill:url(#SVGID_15_);}
	.st26{fill:url(#SVGID_16_);}
	.st27{filter:url(#Adobe_OpacityMaskFilter_5_);}
	.st28{fill:url(#SVGID_18_);}
	.st29{mask:url(#SVGID_17_);fill-rule:evenodd;clip-rule:evenodd;fill:#E63132;}
	.st30{filter:url(#Adobe_OpacityMaskFilter_6_);}
	.st31{fill:url(#SVGID_20_);}
	.st32{mask:url(#SVGID_19_);fill-rule:evenodd;clip-rule:evenodd;fill:#E63132;}
	.st33{filter:url(#Adobe_OpacityMaskFilter_7_);}
	.st34{fill:url(#SVGID_22_);}
	.st35{mask:url(#SVGID_21_);fill-rule:evenodd;clip-rule:evenodd;fill:#E63132;}
	.st36{filter:url(#Adobe_OpacityMaskFilter_8_);}
	.st37{fill:url(#SVGID_24_);}
	.st38{mask:url(#SVGID_23_);fill-rule:evenodd;clip-rule:evenodd;fill:#E63132;}
	.st39{filter:url(#Adobe_OpacityMaskFilter_9_);}
	.st40{fill:url(#SVGID_26_);}
	.st41{mask:url(#SVGID_25_);fill-rule:evenodd;clip-rule:evenodd;fill:#E63132;}
	.st42{fill:url(#SVGID_27_);}
	.st43{fill:url(#SVGID_28_);}
	.st44{fill:url(#SVGID_29_);}
	.st45{fill:url(#SVGID_30_);}
	.st46{filter:url(#Adobe_OpacityMaskFilter_10_);}
	.st47{fill:url(#SVGID_32_);}
	.st48{mask:url(#SVGID_31_);fill-rule:evenodd;clip-rule:evenodd;fill:#E63132;}
	.st49{filter:url(#Adobe_OpacityMaskFilter_11_);}
	.st50{fill:url(#SVGID_34_);}
	.st51{mask:url(#SVGID_33_);fill-rule:evenodd;clip-rule:evenodd;fill:#E63132;}
	.st52{filter:url(#Adobe_OpacityMaskFilter_12_);}
	.st53{fill:url(#SVGID_36_);}
	.st54{mask:url(#SVGID_35_);fill-rule:evenodd;clip-rule:evenodd;fill:#E63132;}
	.st55{filter:url(#Adobe_OpacityMaskFilter_13_);}
	.st56{fill:url(#SVGID_38_);}
	.st57{mask:url(#SVGID_37_);fill-rule:evenodd;clip-rule:evenodd;fill:#E63132;}
	.st58{filter:url(#Adobe_OpacityMaskFilter_14_);}
	.st59{fill:url(#SVGID_40_);}
	.st60{mask:url(#SVGID_39_);fill-rule:evenodd;clip-rule:evenodd;fill:#E63132;}
	.st61{fill:url(#SVGID_41_);}
	.st62{fill:url(#SVGID_42_);}
</style>
<rect class="st0" width="1000" height="1000"/>
<path class="st1" d="M382.15,540.17h-10.29c-1.34,0-1.81-0.81-1.43-2.43l24.87-87.05c0.48-1.62,1.62-2.43,3.43-2.43h14.29
	c1.9,0,3.05,0.81,3.43,2.43l24.87,87.05c0.38,1.62-0.14,2.43-1.57,2.43h-10.15c-0.86,0-1.45-0.16-1.79-0.5
	c-0.33-0.33-0.6-0.98-0.79-1.93l-5.43-18.58h-31.45l-5.43,18.58C384.34,539.36,383.48,540.17,382.15,540.17z M405.59,461.97
	l-12.58,45.74h25.87l-12.72-45.74H405.59z"/>
<path class="st1" d="M466.2,540.17h-9.01c-1.62,0-2.43-0.81-2.43-2.43v-95.63c0-1.62,0.81-2.43,2.43-2.43h9.01
	c1.62,0,2.43,0.81,2.43,2.43v95.63C468.63,539.36,467.82,540.17,466.2,540.17z"/>
<path class="st1" d="M498.79,560.32h-9.01c-1.62,0-2.43-0.81-2.43-2.43v-88.2c0-1.62,0.81-2.43,2.43-2.43h9.01
	c1.62,0,2.43,0.81,2.43,2.43v5.15h0.57c2.29-5.05,7.1-7.58,14.44-7.58h7.29c6.86,0,12.13,1.91,15.8,5.72
	c3.67,3.81,5.5,9.29,5.5,16.44v28.59c0,7.06-1.84,12.51-5.5,16.37c-3.67,3.86-8.93,5.79-15.8,5.79h-7.29
	c-7.34,0-12.15-2.52-14.44-7.58h-0.57v25.3C501.22,559.51,500.41,560.32,498.79,560.32z M512.94,528.02h7.58
	c6.86,0,10.29-3.52,10.29-10.58v-27.44c0-7.05-3.43-10.58-10.29-10.58h-7.58c-7.81,0-11.72,4.05-11.72,12.15v24.3
	C501.22,523.97,505.12,528.02,512.94,528.02z"/>
<path class="st1" d="M572.83,540.17h-9.01c-1.62,0-2.43-0.81-2.43-2.43v-95.63c0-1.62,0.81-2.43,2.43-2.43h9.01
	c1.62,0,2.43,0.81,2.43,2.43v32.73h0.57c2.29-5.05,7.1-7.58,14.44-7.58h6.29c6.95,0,12.29,1.91,16.01,5.72
	c3.72,3.81,5.57,9.29,5.57,16.44v48.31c0,1.62-0.86,2.43-2.57,2.43h-9.01c-1.62,0-2.43-0.81-2.43-2.43v-47.74
	c0-7.05-3.48-10.58-10.44-10.58h-6.72c-7.81,0-11.72,4.05-11.72,12.15v46.17C575.26,539.36,574.45,540.17,572.83,540.17z"/>
<path class="st2" d="M648.17,540.17h-9.01c-1.62,0-2.43-0.81-2.43-2.43v-87.05c0-1.62,0.81-2.43,2.43-2.43h34.02
	c6.96,0,12.39,1.93,16.3,5.79c3.91,3.86,5.86,9.32,5.86,16.37v14.87c0,6.96-1.95,12.39-5.86,16.3c-3.91,3.91-9.34,5.86-16.3,5.86
	h-20.87c-1.14,0-1.72,0.48-1.72,1.43v28.88C650.6,539.36,649.78,540.17,648.17,540.17z M652.17,495.14h19.01
	c6.77,0,10.15-3.53,10.15-10.58v-13.58c0-7.05-3.38-10.58-10.15-10.58h-19.01c-1.05,0-1.57,0.48-1.57,1.43v31.88
	C650.6,494.67,651.12,495.14,652.17,495.14z"/>
<path class="st2" d="M737.08,540.17h-5.57c-7.05,0-12.51-1.95-16.37-5.86c-3.86-3.91-5.79-9.34-5.79-16.3v-28.59
	c0-7.05,1.93-12.51,5.79-16.37c3.86-3.86,9.31-5.79,16.37-5.79h32.02c1.72,0,2.57,0.81,2.57,2.43v68.04c0,1.62-0.86,2.43-2.57,2.43
	h-9.01c-1.62,0-2.43-0.81-2.43-2.43v-5.15h-0.57C749.23,537.64,744.42,540.17,737.08,540.17z M752.09,515.87v-35.02
	c0-0.95-0.53-1.43-1.57-1.43h-17.01c-6.86,0-10.29,3.53-10.29,10.58v27.44c0,7.06,3.43,10.58,10.29,10.58h6.86
	C748.18,528.02,752.09,523.97,752.09,515.87z"/>
<path class="st2" d="M811.12,540.17h-7.29c-6.86,0-12.13-1.93-15.8-5.79c-3.67-3.86-5.5-9.31-5.5-16.37v-28.59
	c0-7.15,1.83-12.63,5.5-16.44c3.67-3.81,8.93-5.72,15.8-5.72h7.29c7.34,0,12.1,2.52,14.3,7.58h0.57v-32.73
	c0-1.62,0.81-2.43,2.43-2.43h9.15c1.62,0,2.43,0.81,2.43,2.43v95.63c0,1.62-0.81,2.43-2.43,2.43h-9.15c-1.62,0-2.43-0.81-2.43-2.43
	v-5.15h-0.57C823.23,537.64,818.46,540.17,811.12,540.17z M825.99,515.87v-24.3c0-8.1-3.91-12.15-11.72-12.15h-7.58
	c-6.86,0-10.29,3.53-10.29,10.58v27.44c0,7.06,3.43,10.58,10.29,10.58h7.58C822.08,528.02,825.99,523.97,825.99,515.87z"/>
<path class="st2" d="M249.39,549.96l-4.67,15.16l-3.78,12.29l-4.73,15.34h-0.02c-2.99-0.51-5.91-1.17-8.81-1.95
	c-0.64-0.18-1.3-0.36-1.94-0.56c-2.2-0.66-4.39-1.4-6.52-2.23c-0.76-0.3-1.51-0.59-2.27-0.9c-0.59-0.25-1.18-0.49-1.77-0.76
	c-1.63-0.71-3.24-1.48-4.83-2.3c-0.54-0.26-1.08-0.56-1.63-0.84c-2.3-1.23-4.55-2.56-6.74-3.99c-0.56-0.38-1.12-0.74-1.68-1.13
	l14.24-8.56l13.22-7.93c0.31,0.12,0.62,0.21,0.95,0.31L249.39,549.96z"/>
<path class="st2" d="M227.49,561.59l-27.47,16.49c-2.43-1.64-4.76-3.42-7.01-5.29l-0.03-0.03h-0.02
	C172.81,555.91,160,530.61,160,502.3c0-39.23,24.64-72.73,59.29-85.84c-26.88,12.32-45.54,39.46-45.54,70.95
	C173.75,522.03,196.29,551.39,227.49,561.59z"/>
<path class="st2" d="M343.53,502.31c0,31.4-15.77,59.11-39.82,75.66c-0.03,0.03-0.07,0.04-0.1,0.07c-0.24,0.16-0.46,0.32-0.7,0.47
	c-10.32,6.94-22.13,11.84-34.84,14.12c-0.11,0.03-0.23,0.04-0.34,0.06l-8.5-27.6l-4.66-15.13l20.8,11.85
	c0.16-0.04,0.32-0.1,0.48-0.15c0.01-0.01,0.03-0.01,0.05-0.01c31.28-10.16,53.89-39.56,53.89-74.22c0-31.49-18.66-58.63-45.53-70.95
	C318.9,429.59,343.53,463.07,343.53,502.31z"/>
<path class="st3" d="M219.29,416.46c-0.3,0.13-0.61,0.28-0.9,0.43c-30.51,12.8-51.88,42.57-51.88,77.25
	c0,33.1,19.83,61.97,48.12,75.63l-14.6,8.31c-2.43-1.64-4.76-3.42-7.01-5.29l-0.03-0.03h-0.02C172.81,555.91,160,530.61,160,502.3
	C160,463.07,184.64,429.57,219.29,416.46z"/>
<path class="st3" d="M343.52,502.3c0,31.4-15.74,59.09-39.79,75.66c-0.01,0-0.01,0.01-0.02,0.01c-0.03,0.01-0.08,0.03-0.11,0.06
	c-0.23,0.17-0.46,0.32-0.69,0.48c-10.32,6.93-22.13,11.83-34.84,14.11c-0.12,0.04-0.23,0.05-0.35,0.07l-0.66-2.14l-4.05-13.17
	c9.43-1.21,18.38-3.93,26.58-7.92c28.22-13.69,47.64-42.27,47.64-75.33c0-34.53-21.23-64.2-51.54-77.08
	C319.58,430.52,343.52,463.61,343.52,502.3z"/>
<linearGradient id="SVGID_1_" gradientUnits="userSpaceOnUse" x1="158.3381" y1="569.9925" x2="342.6337" y2="569.9925">
	<stop  offset="0" style="stop-color:#231F20"/>
	<stop  offset="1" style="stop-color:#231F20"/>
</linearGradient>
<polygon class="st4" points="228.44,561.9 200.02,578.08 193,572.79 192.97,572.76 192.96,572.74 "/>
<linearGradient id="SVGID_2_" gradientUnits="userSpaceOnUse" x1="177.791" y1="581.5115" x2="178.8966" y2="581.5115">
	<stop  offset="6.926126e-08" style="stop-color:#00BDFD"/>
	<stop  offset="1" style="stop-color:#00FABC"/>
</linearGradient>
<path class="st5" d="M178.68,581.45l-0.29,0.12l-0.02-0.06C178.48,581.49,178.58,581.48,178.68,581.45z"/>
<path class="st6" d="M251.86,431.08c3.7,0,6.71,3,6.71,6.71c0,3.7-3,6.71-6.71,6.71c-3.7,0-6.71-3-6.71-6.71
	C245.16,434.08,248.16,431.08,251.86,431.08 M251.86,475.82c3.7,0,6.71-3,6.71-6.71c0-3.7-3-6.71-6.71-6.71c-3.7,0-6.71,3-6.71,6.71
	C245.16,472.81,248.16,475.82,251.86,475.82z M251.86,407.25c-16.89,14.71-25.15,42.15-21.17,68.75
	c-1.97-4.88-3.29-10.34-3.81-16.13c-6.78,7.73-11.22,19.24-11.63,32.2h19.48c1.34,3.68,2.92,7.16,4.72,10.4h12.41h12.41
	c1.8-3.24,3.38-6.72,4.72-10.4h19.48c-0.41-12.96-4.85-24.47-11.63-32.2c-0.51,5.8-1.83,11.25-3.81,16.13
	C277.01,449.4,268.75,421.96,251.86,407.25z"/>
<path class="st7" d="M214.14,477.35c0.32-0.23,0.64-0.46,0.97-0.69C214.78,476.89,214.45,477.12,214.14,477.35"/>
<polygon class="st6" points="264.28,506.57 251.86,506.4 239.45,506.57 251.86,541.43 "/>
<defs>
	<filter id="Adobe_OpacityMaskFilter" filterUnits="userSpaceOnUse" x="245.16" y="431.08" width="12.57" height="12.33">
		<feColorMatrix  type="matrix" values="1 0 0 0 0  0 1 0 0 0  0 0 1 0 0  0 0 0 1 0"/>
	</filter>
</defs>
<mask maskUnits="userSpaceOnUse" x="245.16" y="431.08" width="12.57" height="12.33" id="SVGID_3_">
	<g class="st8">
		
			<linearGradient id="SVGID_4_" gradientUnits="userSpaceOnUse" x1="-391.9042" y1="516.3786" x2="-368.5451" y2="538.1532" gradientTransform="matrix(1 0 0 1 624.0648 -97.109)">
			<stop  offset="0" style="stop-color:#FFFFFF"/>
			<stop  offset="1" style="stop-color:#000000"/>
		</linearGradient>
		<rect x="245.16" y="431.08" class="st9" width="12.57" height="12.33"/>
	</g>
</mask>
<path class="st10" d="M247.36,440.15c0-3.7,3-6.71,6.71-6.71c1.35,0,2.6,0.4,3.66,1.08c-1.15-2.06-3.34-3.45-5.86-3.45
	c-3.7,0-6.71,3-6.71,6.71c0,2.36,1.21,4.43,3.05,5.62C247.67,442.44,247.36,441.33,247.36,440.15"/>
<defs>
	<filter id="Adobe_OpacityMaskFilter_1_" filterUnits="userSpaceOnUse" x="245.16" y="462.4" width="13.09" height="11.22">
		<feColorMatrix  type="matrix" values="1 0 0 0 0  0 1 0 0 0  0 0 1 0 0  0 0 0 1 0"/>
	</filter>
</defs>
<mask maskUnits="userSpaceOnUse" x="245.16" y="462.4" width="13.09" height="11.22" id="SVGID_5_">
	<g class="st11">
		
			<linearGradient id="SVGID_6_" gradientUnits="userSpaceOnUse" x1="-390.776" y1="533.0443" x2="-368.8226" y2="557.1956" gradientTransform="matrix(1 0 0 1 624.0648 -85.2874)">
			<stop  offset="0" style="stop-color:#FFFFFF"/>
			<stop  offset="1" style="stop-color:#000000"/>
		</linearGradient>
		<rect x="245.16" y="462.4" class="st12" width="13.09" height="11.22"/>
	</g>
</mask>
<path class="st13" d="M251.86,462.4c-3.7,0-6.71,3-6.71,6.71c0,1.74,0.66,3.32,1.74,4.51c-0.21-0.65-0.32-1.34-0.32-2.06
	c0-3.7,3-6.71,6.71-6.71c1.97,0,3.74,0.85,4.96,2.2C257.37,464.35,254.85,462.4,251.86,462.4"/>
<defs>
	<filter id="Adobe_OpacityMaskFilter_2_" filterUnits="userSpaceOnUse" x="215.65" y="407.25" width="36.21" height="79.5">
		<feColorMatrix  type="matrix" values="1 0 0 0 0  0 1 0 0 0  0 0 1 0 0  0 0 0 1 0"/>
	</filter>
</defs>
<mask maskUnits="userSpaceOnUse" x="215.65" y="407.25" width="36.21" height="79.5" id="SVGID_7_">
	<g class="st14">
		
			<linearGradient id="SVGID_8_" gradientUnits="userSpaceOnUse" x1="-445.4543" y1="429.8865" x2="-359.762" y2="554.86" gradientTransform="matrix(1 0 0 1 612.5199 -80.1505)">
			<stop  offset="0" style="stop-color:#FFFFFF"/>
			<stop  offset="1" style="stop-color:#000000"/>
		</linearGradient>
		<rect x="215.65" y="407.25" class="st15" width="36.21" height="79.5"/>
	</g>
</mask>
<path class="st16" d="M245.29,475.08c-1.49-1.64-2.31-3.76-2.31-5.97c0-4.9,3.98-8.88,8.88-8.88v-12.51l-4.54-2.96
	c-2.36-1.54-3.79-4.15-3.79-6.98c0-4.6,3.73-8.32,8.32-8.32v-22.21c-16.89,14.71-25.15,42.15-21.17,68.75
	c-1.97-4.88-3.29-10.34-3.81-16.13c-5.84,6.66-9.94,16.12-11.23,26.89c1.38-0.09,2.62-0.23,3.25-0.31
	c4.86-0.66,9.78-1.87,14.49-3.23c4.99-1.43,9.94-3.11,14.79-4.95L245.29,475.08z"/>
<defs>
	<filter id="Adobe_OpacityMaskFilter_3_" filterUnits="userSpaceOnUse" x="215.65" y="407.25" width="36.21" height="79.5">
		<feColorMatrix  type="matrix" values="1 0 0 0 0  0 1 0 0 0  0 0 1 0 0  0 0 0 1 0"/>
	</filter>
</defs>
<mask maskUnits="userSpaceOnUse" x="215.65" y="407.25" width="36.21" height="79.5" id="SVGID_9_">
	<g class="st17">
		
			<linearGradient id="SVGID_10_" gradientUnits="userSpaceOnUse" x1="-402.2384" y1="492.4988" x2="-365.4619" y2="546.7817" gradientTransform="matrix(1 0 0 1 612.5199 -80.1505)">
			<stop  offset="0" style="stop-color:#FFFFFF"/>
			<stop  offset="1" style="stop-color:#000000"/>
		</linearGradient>
		<rect x="215.65" y="407.25" class="st18" width="36.21" height="79.5"/>
	</g>
</mask>
<path class="st19" d="M226.88,459.86c-5.84,6.66-9.94,16.12-11.23,26.89c0.72-0.04,1.4-0.1,1.97-0.16c1.38-9.2,4.82-17.36,9.64-23.5
	C227.1,462.02,226.98,460.95,226.88,459.86 M232.42,477.57c-3.83-25.67,3.72-52.12,19.44-67.16v-3.16
	c-15.61,13.59-23.84,38.06-21.87,62.68C230.63,472.6,231.45,475.15,232.42,477.57z"/>
<path class="st3" d="M249.39,549.96l-4.67,15.16l-8.51,27.63h-0.02c-5.98-1.02-11.75-2.61-17.27-4.73v-0.02L249.39,549.96z"/>
<path class="st2" d="M278.6,562.87l-3.05-0.98c0.32-0.1,0.61-0.19,0.91-0.3L278.6,562.87z"/>
<path class="st2" d="M303.73,577.96c-0.01,0-0.01,0.01-0.02,0.01c-0.03,0.01-0.08,0.03-0.11,0.06c-0.23,0.17-0.46,0.32-0.69,0.48
	c-5.59,3.75-11.62,6.91-17.99,9.37c-5.39,2.1-11.03,3.7-16.85,4.74c-0.12,0.04-0.23,0.05-0.35,0.07l-8.49-27.57l-4.66-15.16
	l20.83,11.88h0.01l0.1,0.06l28.2,16.06l0.01-0.01L303.73,577.96z"/>
<path class="st3" d="M284.92,587.88c-5.39,2.1-11.03,3.7-16.85,4.74c-0.12,0.04-0.23,0.05-0.35,0.07l-8.49-27.57l-4.66-15.16
	L284.92,587.88z"/>
<defs>
	<filter id="Adobe_OpacityMaskFilter_4_" filterUnits="userSpaceOnUse" x="248.23" y="506.44" width="16.04" height="34.99">
		<feColorMatrix  type="matrix" values="1 0 0 0 0  0 1 0 0 0  0 0 1 0 0  0 0 0 1 0"/>
	</filter>
</defs>
<mask maskUnits="userSpaceOnUse" x="248.23" y="506.44" width="16.04" height="34.99" id="SVGID_11_">
	<g class="st20">
		
			<linearGradient id="SVGID_12_" gradientUnits="userSpaceOnUse" x1="-296.9649" y1="528.065" x2="-378.9211" y2="590.1963" gradientTransform="matrix(1 0 0 1 625.2667 -58.7563)">
			<stop  offset="0" style="stop-color:#FFFFFF"/>
			<stop  offset="1" style="stop-color:#000000"/>
		</linearGradient>
		<rect x="248.23" y="506.44" class="st21" width="16.04" height="34.99"/>
	</g>
</mask>
<polygon class="st22" points="248.23,531.22 253.61,506.44 264.27,506.59 251.86,541.43 "/>
<linearGradient id="SVGID_13_" gradientUnits="userSpaceOnUse" x1="275.51" y1="569.925" x2="310.1699" y2="569.925">
	<stop  offset="0" style="stop-color:#231F20"/>
	<stop  offset="1" style="stop-color:#231F20"/>
</linearGradient>
<path class="st23" d="M310.17,573.07l-6.45,4.88l-0.01,0.01l-28.2-16.06c0.01,0,0.03-0.01,0.04-0.01l3.05,0.98L310.17,573.07z"/>
<linearGradient id="SVGID_14_" gradientUnits="userSpaceOnUse" x1="274.9372" y1="561.87" x2="275.665" y2="561.87">
	<stop  offset="0" style="stop-color:#231F20"/>
	<stop  offset="1" style="stop-color:#231F20"/>
</linearGradient>
<path class="st24" d="M275.55,561.89c-0.01,0-0.03,0.01-0.04,0.01l-0.1-0.06L275.55,561.89z"/>
</svg>
